PathFileType	4	(X/Y/Z)	C:/Users/opensim2020/Desktop/walking_exp_matlab/subject03_walking14_straight_04.trc																																																																																																																																											
DataRate	CameraRate	NumFrames	NumMarkers	Units	OrigDataRate	OrigDataStartFrame	OrigNumFrames																																																																																																																																							
100	100	8	47	mm	100	2244	177																																																																																																																																							
Frame#	Time	LFHD			RFHD			LBHD			RBHD			C7			T10			CLAV			STRN			RBAK			LSHO			LUPA			LELB			LFRM			LWRA			LWRB			LFIN			RSHO			RUPA			RELB			RFRM			RWRA			RWRB			RFIN			LASI			RASI			LPSI			RPSI			LTHI			LKNE			LTIB			LANK			LHEE			LTOE			RTHI			RKNE			RTIB			RANK			RHEE			RTOE			*39			*40			*41			*42			*43			*44			*45			*46		
		X1	Y1	Z1	X2	Y2	Z2	X3	Y3	Z3	X4	Y4	Z4	X5	Y5	Z5	X6	Y6	Z6	X7	Y7	Z7	X8	Y8	Z8	X9	Y9	Z9	X10	Y10	Z10	X11	Y11	Z11	X12	Y12	Z12	X13	Y13	Z13	X14	Y14	Z14	X15	Y15	Z15	X16	Y16	Z16	X17	Y17	Z17	X18	Y18	Z18	X19	Y19	Z19	X20	Y20	Z20	X21	Y21	Z21	X22	Y22	Z22	X23	Y23	Z23	X24	Y24	Z24	X25	Y25	Z25	X26	Y26	Z26	X27	Y27	Z27	X28	Y28	Z28	X29	Y29	Z29	X30	Y30	Z30	X31	Y31	Z31	X32	Y32	Z32	X33	Y33	Z33	X34	Y34	Z34	X35	Y35	Z35	X36	Y36	Z36	X37	Y37	Z37	X38	Y38	Z38	X39	Y39	Z39	X40	Y40	Z40	X41	Y41	Z41	X42	Y42	Z42	X43	Y43	Z43	X44	Y44	Z44	X45	Y45	Z45	X46	Y46	Z46	X47	Y47	Z47
																																																																																																																																														
67	0.66	-157.60196	1607.33777	905.98389	-170.14186	1616.1123	1038.06116	-286.07199	1566.13708	899.98431	-293.56348	1574.04504	1030.32202	-322.80698	1405.31299	954.18134	-344.06058	1089.74133	957.59113	-201.63959	1331.13281	969.88037	-149.5285	1169.66846	972.73987	-382.28122	1225.83032	1044.25342	-232.75281	1365.75476	808.31201	-251.66301	1167.41748	736.46783	-260.73422	1044.98523	722.23309	-257.91214	914.30341	717.33667	-265.61758	793.03754	742.13257	-282.34885	805.19812	688.83795	-299.95819	719.24231	698.73785	-269.19003	1355.66406	1122.43237	-248.65451	1136.40454	1197.52258	-210.25307	1030.302	1209.97217	-147.90222	909.23743	1204.96362	-84.43568	836.2085	1164.25928	-112.41329	815.96576	1205.49817	-61.25616	763.42065	1193.48816	-159.08084	940.39893	859.17688	-193.34727	924.28082	1094.46863	-327.95474	957.4104	886.82538	-346.22363	951.58606	1035.23535	-168.69275	639.79596	805.09515	-134.87209	467.57962	849.16919	-189.74103	272.98071	841.49939	-226.66516	66.66764	882.43378	-272.79971	33.34111	914.69623	-80.22175	29.73287	923.08282	-234.07283	621.7804	1131.73132	-194.08148	445.56348	1116.27783	-345.03073	332.80026	1109.69385	-518.25049	210.20589	1058.67517	-563.65894	225.93277	1000.05896	-478.591	72.90636	1049.83923	NaN	NaN	NaN	NaN	NaN	NaN	NaN	NaN	NaN	NaN	NaN	NaN	NaN	NaN	NaN	NaN	NaN	NaN	NaN	NaN	NaN	NaN	NaN	NaN
68	0.67	-144.5215	1608.53906	905.97797	-157.03793	1617.47852	1037.93628	-273.10818	1567.59021	900.05096	-280.57861	1575.77319	1030.35352	-310.37463	1407.07507	954.37799	-331.9653	1091.45007	956.94122	-189.31133	1332.68152	970.25409	-137.44604	1171.05981	972.76855	-370.46906	1227.28809	1043.51953	-219.75053	1367.53027	808.67731	-235.40294	1169.07629	737.01251	-242.2193	1046.50793	722.80426	-236.8584	915.96814	718.26093	-243.12854	794.59015	743.17096	-258.64597	806.4079	689.63464	-272.17438	720.06024	698.94196	-257.5976	1356.76208	1122.74963	-238.85945	1136.97375	1196.99402	-201.51939	1030.21155	1209.26489	-142.45836	907.3363	1205.14441	-80.66727	832.13055	1165.32422	-109.65922	813.04138	1206.49377	-60.33368	758.48163	1194.75562	-147.56163	941.39636	858.18744	-181.28288	926.42181	1093.49109	-316.11642	958.92474	886.38733	-334.11789	953.49786	1034.85181	-160.01526	640.21075	805.22992	-130.74854	467.12946	849.31561	-188.04425	273.19702	841.38257	-226.52583	67.03379	882.44067	-272.76181	33.73925	914.81561	-80.15611	29.65479	923.09644	-215.12373	623.74701	1130.42419	-171.06558	448.84509	1115.46082	-319.63379	333.47372	1108.31152	-490.20453	206.99646	1057.01306	-536.50269	220.47794	998.83032	-443.98978	71.82681	1048.50964	NaN	NaN	NaN	NaN	NaN	NaN	NaN	NaN	NaN	NaN	NaN	NaN	NaN	NaN	NaN	NaN	NaN	NaN	NaN	NaN	NaN	NaN	NaN	NaN
69	0.68	-131.78821	1609.62292	905.95685	-144.00047	1618.82288	1038.02625	-260.40936	1569.19775	900.29999	-267.67987	1577.52209	1030.56604	-297.91803	1408.54529	954.92706	-319.86691	1093.03271	956.33533	-177.10451	1334.08228	970.72083	-125.47495	1172.40503	972.74316	-358.58344	1228.73584	1042.88367	-207.10257	1369.53149	809.19312	-219.39867	1170.95935	737.50952	-223.5186	1048.23328	723.48981	-215.53294	917.83417	719.38324	-219.43568	796.39117	744.64868	-234.56934	807.80353	690.78577	-243.72882	721.43799	699.29132	-246.0005	1357.88354	1122.97693	-228.85172	1137.42871	1196.03406	-193.00574	1030.18958	1208.61377	-137.44798	905.63885	1205.43774	-77.39045	828.28387	1166.65564	-107.33497	810.3197	1207.61401	-59.9245	753.81079	1196.34546	-136.24638	942.35706	857.30164	-167.93671	929.12646	1092.69946	-304.36096	960.34821	886.1886	-321.90848	955.42139	1034.73157	-151.86838	640.49225	805.34204	-127.11409	466.81555	849.23651	-186.60632	273.45779	841.21906	-226.39661	67.5074	882.29358	-272.76477	34.49033	914.79425	-80.12088	29.61506	923.09137	-196.722	625.84631	1130.58484	-148.50157	452.23886	1114.51733	-294.08865	333.39545	1106.72253	-461.04831	201.98254	1055.35852	-508.7377	213.4873	997.54565	-408.07776	69.7185	1046.57153	NaN	NaN	NaN	NaN	NaN	NaN	NaN	NaN	NaN	NaN	NaN	NaN	NaN	NaN	NaN	NaN	NaN	NaN	NaN	NaN	NaN	NaN	NaN	NaN
70	0.69	-118.74926	1610.60449	906.13794	-131.01006	1620.00085	1038.10876	-247.78815	1570.64038	900.63275	-254.84889	1579.08838	1030.86829	-285.52856	1410.11218	955.03363	-307.93094	1094.60071	955.86517	-164.93672	1335.46204	971.11597	-113.56958	1173.74023	972.60669	-346.68689	1230.12207	1042.51477	-194.5206	1371.49207	809.69604	-203.46254	1173.00049	737.9599	-205.05777	1050.21179	724.34003	-193.92322	919.98071	720.6026	-196.07164	798.38055	746.1814	-210.05023	809.57867	692.03717	-214.41579	723.29669	699.75397	-234.44191	1359.08936	1123.26099	-219.02592	1137.99231	1195.34619	-184.70923	1030.16345	1208.03442	-132.52069	903.86157	1205.77002	-74.4597	824.51227	1168.09314	-105.51482	807.67511	1208.68237	-60.00074	749.5213	1198.25134	-124.94974	943.31702	856.33398	-155.39473	931.49817	1091.81226	-292.68851	961.6463	886.17676	-309.7095	957.29675	1034.81653	-144.58418	640.82123	805.45129	-123.48022	466.68869	848.81732	-185.2382	273.84378	841.06171	-226.23227	68.00133	882.21045	-272.21783	34.91162	915.388	-80.03771	29.53154	922.97394	-177.72287	627.84387	1129.04846	-126.43888	455.70255	1113.50525	-268.3038	332.41623	1105.27625	-431.0737	195.73474	1053.80688	-479.91473	204.83812	996.44812	-370.54279	67.11414	1044.50586	NaN	NaN	NaN	NaN	NaN	NaN	NaN	NaN	NaN	NaN	NaN	NaN	NaN	NaN	NaN	NaN	NaN	NaN	NaN	NaN	NaN	NaN	NaN	NaN
71	0.7	-106.22771	1611.6178	906.28296	-118.06814	1621.09546	1038.36353	-235.15958	1572.02087	900.97882	-242.02975	1580.55359	1031.27991	-273.3342	1411.53113	955.43079	-296.04575	1096.05066	955.46161	-152.81461	1336.72632	971.51202	-101.64862	1174.88721	972.44348	-334.76151	1231.48022	1042.26709	-182.00098	1373.35498	810.1897	-187.84816	1175.03906	738.30432	-186.27202	1052.17969	724.9765	-172.20691	922.30804	721.95209	-171.89577	800.84979	747.86975	-185.21831	811.53149	693.5332	-185.39497	725.74506	700.76233	-222.62228	1360.00574	1123.49548	-209.22444	1138.48999	1194.80493	-176.61284	1030.09692	1207.5824	-128.04477	902.28522	1206.19104	-71.86592	820.89551	1169.66248	-103.94593	805.26379	1209.94604	-60.36543	745.59149	1200.33313	-113.78307	944.26581	855.31213	-142.90974	933.65814	1091.0343	-281.27408	963.02136	886.33002	-297.38895	959.04388	1035.01074	-137.59044	641.1474	805.37018	-120.46197	466.21515	848.87903	-183.95819	274.34842	840.92908	-226.13446	68.73461	881.82813	-272.36288	35.68423	915.29291	-79.90108	29.44463	922.89087	-159.62038	630.172	1128.39648	-104.8097	459.26297	1112.42969	-242.38898	330.86737	1103.99731	-400.33221	188.43974	1052.38721	-450.05692	194.64243	995.20013	-332.04083	64.09061	1042.64771	NaN	NaN	NaN	NaN	NaN	NaN	NaN	NaN	NaN	NaN	NaN	NaN	NaN	NaN	NaN	NaN	NaN	NaN	NaN	NaN	NaN	NaN	NaN	NaN
72	0.71	-93.61068	1612.47412	906.61072	-105.20269	1621.9646	1038.64526	-222.67586	1573.32324	901.49884	-229.29024	1581.8905	1031.75684	-261.1265	1412.83386	955.79425	-284.15338	1097.42334	955.19183	-140.73691	1337.83435	971.80151	-89.71567	1175.97363	972.23645	-322.84479	1232.75647	1042.12891	-169.65695	1375.12122	810.70288	-172.34517	1177.17432	738.57483	-167.84239	1054.23669	725.65137	-150.47009	924.78461	723.30029	-146.67581	803.82404	749.40717	-160.0681	813.75891	695.11725	-155.77957	728.65094	701.89478	-210.81972	1360.93579	1123.72571	-199.5726	1138.91248	1194.39673	-168.66933	1030.00183	1207.24622	-123.78056	900.75494	1206.76184	-69.78152	817.3233	1171.10193	-102.81329	802.89838	1211.01599	-60.98898	741.83539	1202.62085	-102.75612	944.98889	854.38879	-129.93037	935.52594	1090.34021	-269.93723	964.24823	886.65729	-285.14127	960.64685	1035.35913	-131.85201	641.29193	805.52344	-117.48363	466.09668	848.57941	-182.7415	274.92944	840.84772	-226.03452	69.37508	881.81702	-272.13443	36.99002	915.24579	-79.82934	29.35707	922.7597	-141.9604	632.57208	1128.06506	-83.69821	462.85339	1111.2334	-216.44217	328.99719	1102.81091	-368.39279	180.14792	1050.95947	-418.92316	183.38887	994.02936	-292.55371	60.68999	1040.94031	NaN	NaN	NaN	NaN	NaN	NaN	NaN	NaN	NaN	NaN	NaN	NaN	NaN	NaN	NaN	NaN	NaN	NaN	NaN	NaN	NaN	NaN	NaN	NaN
73	0.72	-81.04725	1613.34436	906.99237	-92.42502	1622.73145	1039.04504	-210.16786	1574.5188	902.01855	-216.57889	1582.99304	1032.30701	-249.0706	1414.01111	956.40613	-272.34515	1098.66235	955.02191	-128.66956	1338.81946	972.09137	-77.7813	1176.89795	971.99219	-310.87256	1233.93591	1042.12341	-157.30855	1376.72681	811.23352	-157.22311	1179.18762	738.73547	-149.48468	1056.34082	726.10785	-128.49619	927.38611	724.60052	-122.17096	806.52722	751.35406	-134.66501	816.1687	696.80096	-126.09949	731.91016	703.2616	-198.80797	1361.67883	1123.94727	-189.97243	1139.22461	1194.1499	-160.87648	1029.84692	1207.0553	-119.64209	899.32239	1207.32654	-67.72296	813.98895	1172.89465	-101.77428	800.79669	1212.22168	-61.79699	738.39111	1204.91638	-91.87529	945.73694	853.44489	-118.10017	936.90234	1089.84851	-258.63699	965.31287	887.11884	-272.99124	962.03271	1035.80664	-126.19385	641.55267	805.60431	-114.69972	466.13876	848.1272	-181.70285	275.68628	840.83295	-225.90627	70.2141	881.966	-272.93832	38.89528	914.17633	-79.67188	29.25547	922.78259	-124.65269	635.04388	1127.87415	-63.13356	466.44824	1109.92261	-190.4209	326.81464	1101.65198	-335.52017	171.15166	1049.60718	-386.56314	171.3912	992.73389	-252.40459	57.04517	1039.51794	NaN	NaN	NaN	NaN	NaN	NaN	NaN	NaN	NaN	NaN	NaN	NaN	NaN	NaN	NaN	NaN	NaN	NaN	NaN	NaN	NaN	NaN	NaN	NaN
74	0.73	-68.44848	1614.05957	907.48993	-79.70264	1623.34338	1039.53357	-197.69469	1575.56982	902.65125	-203.96828	1583.91907	1032.92493	-236.83577	1415.01477	956.63275	-260.59268	1099.73596	954.95996	-116.58081	1339.66968	972.32806	-65.82437	1177.73438	971.71631	-298.89166	1235.01831	1042.19531	-145.07791	1378.12866	811.73224	-142.08607	1181.11938	738.88409	-131.42949	1058.37427	726.5448	-106.67062	930.15173	725.78467	-96.85683	809.74084	753.24036	-109.15129	818.78729	698.59619	-96.31063	735.54572	704.9389	-186.67262	1362.29688	1124.21558	-180.3969	1139.41968	1193.9624	-153.10426	1029.57031	1206.99561	-115.58834	897.90454	1208.09094	-65.78073	810.86896	1174.67212	-100.99696	798.91681	1213.59656	-62.76315	735.2442	1207.27417	-81.11346	946.26752	852.51312	-106.07384	938.01965	1088.99036	-247.56053	966.30939	887.66296	-260.90347	963.0954	1036.29956	-120.37285	641.88397	805.52991	-112.0658	466.19037	847.71826	-180.72987	276.48889	840.83313	-225.67216	70.83672	881.97742	-272.66602	40.11147	914.32446	-79.39527	29.32936	922.50244	-108.14859	637.7561	1127.89441	-43.05249	469.98615	1108.58582	-164.31784	324.38272	1100.50232	-301.74072	161.61507	1048.32288	-353.0079	158.85979	991.63373	-211.76163	53.3484	1038.4043	NaN	NaN	NaN	NaN	NaN	NaN	NaN	NaN	NaN	NaN	NaN	NaN	NaN	NaN	NaN	NaN	NaN	NaN	NaN	NaN	NaN	NaN	NaN	NaN
